# Blender v2.93.5 OBJ File: 'AISPin.blend'
# www.blender.org
mtllib AISPin.mtl
o Cylinder
v 0.000000 -0.100000 -1.000000
v 0.000000 0.100000 -1.000000
v 0.195090 -0.100000 -0.980785
v 0.195090 0.100000 -0.980785
v 0.382683 -0.100000 -0.923880
v 0.382683 0.100000 -0.923880
v 0.555570 -0.100000 -0.831470
v 0.555570 0.100000 -0.831470
v 0.707107 -0.100000 -0.707107
v 0.707107 0.100000 -0.707107
v 0.831470 -0.100000 -0.555570
v 0.831470 0.100000 -0.555570
v 0.923880 -0.100000 -0.382683
v 0.923880 0.100000 -0.382683
v 0.980785 -0.100000 -0.195090
v 0.980785 0.100000 -0.195090
v 1.000000 -0.100000 0.000000
v 1.000000 0.100000 0.000000
v 0.980785 -0.100000 0.195090
v 0.980785 0.100000 0.195090
v 0.923880 -0.100000 0.382683
v 0.923880 0.100000 0.382683
v 0.831470 -0.100000 0.555570
v 0.831470 0.100000 0.555570
v 0.707107 -0.100000 0.707107
v 0.707107 0.100000 0.707107
v 0.555570 -0.100000 0.831470
v 0.555570 0.100000 0.831470
v 0.382683 -0.100000 0.923880
v 0.382683 0.100000 0.923880
v 0.195090 -0.100000 0.980785
v 0.195090 0.100000 0.980785
v -0.000000 -0.100000 1.000000
v -0.000000 0.100000 1.000000
v -0.195090 -0.100000 0.980785
v -0.195090 0.100000 0.980785
v -0.382683 -0.100000 0.923880
v -0.382683 0.100000 0.923880
v -0.555570 -0.100000 0.831470
v -0.555570 0.100000 0.831470
v -0.707107 -0.100000 0.707107
v -0.707107 0.100000 0.707107
v -0.831469 -0.100000 0.555570
v -0.831469 0.100000 0.555570
v -0.923880 -0.100000 0.382684
v -0.923880 0.100000 0.382684
v -0.980785 -0.100000 0.195090
v -0.980785 0.100000 0.195090
v -1.000000 -0.100000 -0.000000
v -1.000000 0.100000 -0.000000
v -0.980785 -0.100000 -0.195090
v -0.980785 0.100000 -0.195090
v -0.923879 -0.100000 -0.382684
v -0.923879 0.100000 -0.382684
v -0.831470 -0.100000 -0.555570
v -0.831470 0.100000 -0.555570
v -0.707107 -0.100000 -0.707107
v -0.707107 0.100000 -0.707107
v -0.555570 -0.100000 -0.831470
v -0.555570 0.100000 -0.831470
v -0.382683 -0.100000 -0.923880
v -0.382683 0.100000 -0.923880
v -0.195090 -0.100000 -0.980785
v -0.195090 0.100000 -0.980785
vt 0.847579 0.000000
vt 0.847579 0.416218
vt 0.807566 0.416218
vt 0.807566 0.000000
vt 0.769875 0.416218
vt 0.769875 0.000000
vt 0.735954 0.416218
vt 0.735954 0.000000
vt 0.707107 0.416218
vt 0.707107 0.832435
vt 0.678259 0.832435
vt 0.678259 0.416218
vt 0.644338 0.832435
vt 0.644338 0.416218
vt 0.606647 0.832435
vt 0.606647 0.416218
vt 0.566635 0.832435
vt 0.566635 0.416218
vt 0.525838 0.832435
vt 0.525838 0.416218
vt 0.485826 0.832435
vt 0.485826 0.416218
vt 0.448134 0.832435
vt 0.448135 0.416218
vt 0.414213 0.832435
vt 0.414213 0.416218
vt 1.000000 0.416218
vt 1.000000 0.832435
vt 0.966079 0.832435
vt 0.966079 0.416218
vt 0.928388 0.832435
vt 0.928388 0.416218
vt 0.888375 0.832435
vt 0.888375 0.416218
vt 0.847579 0.832435
vt 0.847579 0.416218
vt 0.807566 0.832435
vt 0.807566 0.416218
vt 0.769875 0.832435
vt 0.769875 0.416218
vt 0.735954 0.832435
vt 0.735954 0.416218
vt 0.707107 0.832435
vt 0.707107 0.416218
vt 0.735954 0.000000
vt 0.735954 0.416218
vt 0.707107 0.416218
vt 0.707107 0.000000
vt 0.673186 0.416218
vt 0.673186 0.000000
vt 0.635495 0.416218
vt 0.635495 0.000000
vt 0.595482 0.416218
vt 0.595482 0.000000
vt 0.554686 0.416218
vt 0.554686 0.000000
vt 0.514673 0.416218
vt 0.514673 0.000000
vt 0.476982 0.416218
vt 0.476982 0.000000
vt 0.443061 0.416218
vt 0.443061 0.000000
vt 0.414213 0.416218
vt 0.414213 0.000000
vt 1.000000 0.000000
vt 1.000000 0.416218
vt 0.966079 0.416218
vt 0.966079 0.000000
vt 0.928388 0.416218
vt 0.928388 0.000000
vt 0.023571 0.305209
vt 0.007959 0.267518
vt 0.000000 0.227505
vt 0.000000 0.186709
vt 0.007959 0.146696
vt 0.023571 0.109005
vt 0.046236 0.075084
vt 0.075084 0.046237
vt 0.109005 0.023571
vt 0.146696 0.007959
vt 0.186709 0.000000
vt 0.227505 0.000000
vt 0.267518 0.007959
vt 0.305209 0.023571
vt 0.339130 0.046236
vt 0.367977 0.075084
vt 0.390642 0.109005
vt 0.406255 0.146696
vt 0.414214 0.186708
vt 0.414214 0.227505
vt 0.406255 0.267518
vt 0.390642 0.305209
vt 0.367977 0.339130
vt 0.339130 0.367977
vt 0.305209 0.390642
vt 0.267518 0.406255
vt 0.227505 0.414214
vt 0.186709 0.414214
vt 0.146696 0.406255
vt 0.109005 0.390642
vt 0.075084 0.367977
vt 0.046236 0.339130
vt 0.888375 0.416218
vt 0.888375 0.000000
vt 0.007959 0.681731
vt 0.000000 0.641719
vt 0.000000 0.600922
vt 0.007959 0.560910
vt 0.023571 0.523219
vt 0.046236 0.489298
vt 0.075084 0.460450
vt 0.109005 0.437785
vt 0.146696 0.422173
vt 0.186708 0.414214
vt 0.227505 0.414214
vt 0.267518 0.422173
vt 0.305209 0.437785
vt 0.339130 0.460450
vt 0.367977 0.489297
vt 0.390642 0.523218
vt 0.406254 0.560909
vt 0.414213 0.600922
vt 0.414213 0.641719
vt 0.406254 0.681731
vt 0.390642 0.719422
vt 0.367977 0.753343
vt 0.339130 0.782191
vt 0.305209 0.804856
vt 0.267518 0.820468
vt 0.227505 0.828427
vt 0.186709 0.828427
vt 0.146696 0.820468
vt 0.109005 0.804856
vt 0.075084 0.782191
vt 0.046236 0.753343
vt 0.023571 0.719422
vn 0.0980 0.0000 -0.9952
vn 0.2903 0.0000 -0.9569
vn 0.4714 0.0000 -0.8819
vn 0.6344 0.0000 -0.7730
vn 0.7730 0.0000 -0.6344
vn 0.8819 0.0000 -0.4714
vn 0.9569 0.0000 -0.2903
vn 0.9952 0.0000 -0.0980
vn 0.9952 0.0000 0.0980
vn 0.9569 0.0000 0.2903
vn 0.8819 0.0000 0.4714
vn 0.7730 0.0000 0.6344
vn 0.6344 0.0000 0.7730
vn 0.4714 0.0000 0.8819
vn 0.2903 0.0000 0.9569
vn 0.0980 0.0000 0.9952
vn -0.0980 0.0000 0.9952
vn -0.2903 0.0000 0.9569
vn -0.4714 0.0000 0.8819
vn -0.6344 0.0000 0.7730
vn -0.7730 0.0000 0.6344
vn -0.8819 0.0000 0.4714
vn -0.9569 0.0000 0.2903
vn -0.9952 0.0000 0.0980
vn -0.9952 0.0000 -0.0980
vn -0.9569 0.0000 -0.2903
vn -0.8819 0.0000 -0.4714
vn -0.7730 0.0000 -0.6344
vn -0.6344 0.0000 -0.7730
vn -0.4714 0.0000 -0.8819
vn 0.0000 1.0000 -0.0000
vn -0.2903 0.0000 -0.9569
vn -0.0980 0.0000 -0.9952
vn 0.0000 -1.0000 0.0000
usemtl Material.001
s off
f 1/1/1 2/2/1 4/3/1 3/4/1
f 3/4/2 4/3/2 6/5/2 5/6/2
f 5/6/3 6/5/3 8/7/3 7/8/3
f 7/9/4 8/10/4 10/11/4 9/12/4
f 9/12/5 10/11/5 12/13/5 11/14/5
f 11/14/6 12/13/6 14/15/6 13/16/6
f 13/16/7 14/15/7 16/17/7 15/18/7
f 15/18/8 16/17/8 18/19/8 17/20/8
f 17/20/9 18/19/9 20/21/9 19/22/9
f 19/22/10 20/21/10 22/23/10 21/24/10
f 21/24/11 22/23/11 24/25/11 23/26/11
f 23/27/12 24/28/12 26/29/12 25/30/12
f 25/30/13 26/29/13 28/31/13 27/32/13
f 27/32/14 28/31/14 30/33/14 29/34/14
f 29/34/15 30/33/15 32/35/15 31/36/15
f 31/36/16 32/35/16 34/37/16 33/38/16
f 33/38/17 34/37/17 36/39/17 35/40/17
f 35/40/18 36/39/18 38/41/18 37/42/18
f 37/42/19 38/41/19 40/43/19 39/44/19
f 39/45/20 40/46/20 42/47/20 41/48/20
f 41/48/21 42/47/21 44/49/21 43/50/21
f 43/50/22 44/49/22 46/51/22 45/52/22
f 45/52/23 46/51/23 48/53/23 47/54/23
f 47/54/24 48/53/24 50/55/24 49/56/24
f 49/56/25 50/55/25 52/57/25 51/58/25
f 51/58/26 52/57/26 54/59/26 53/60/26
f 53/60/27 54/59/27 56/61/27 55/62/27
f 55/62/28 56/61/28 58/63/28 57/64/28
f 57/65/29 58/66/29 60/67/29 59/68/29
f 59/68/30 60/67/30 62/69/30 61/70/30
f 4/71/31 2/72/31 64/73/31 62/74/31 60/75/31 58/76/31 56/77/31 54/78/31 52/79/31 50/80/31 48/81/31 46/82/31 44/83/31 42/84/31 40/85/31 38/86/31 36/87/31 34/88/31 32/89/31 30/90/31 28/91/31 26/92/31 24/93/31 22/94/31 20/95/31 18/96/31 16/97/31 14/98/31 12/99/31 10/100/31 8/101/31 6/102/31
f 61/70/32 62/69/32 64/103/32 63/104/32
f 63/104/33 64/103/33 2/2/33 1/1/33
f 1/105/34 3/106/34 5/107/34 7/108/34 9/109/34 11/110/34 13/111/34 15/112/34 17/113/34 19/114/34 21/115/34 23/116/34 25/117/34 27/118/34 29/119/34 31/120/34 33/121/34 35/122/34 37/123/34 39/124/34 41/125/34 43/126/34 45/127/34 47/128/34 49/129/34 51/130/34 53/131/34 55/132/34 57/133/34 59/134/34 61/135/34 63/136/34
